<svg xmlns="http://www.w3.org/2000/svg" viewBox="0 0 64 64">
  <defs>
    <radialGradient id="g" cx="50%" cy="50%" r="50%">
      <stop offset="0%" stop-color="#5cffb1"/>
      <stop offset="100%" stop-color="#15a564"/>
    </radialGradient>
  </defs>
  <rect width="64" height="64" rx="14" fill="#05070d"/>
  <circle cx="32" cy="32" r="6" fill="url(#g)"/>
  <g stroke="url(#g)" stroke-width="2.2" stroke-linecap="round" fill="none">
    <path d="M32 26 L32 12"/>
    <path d="M32 38 L32 52"/>
    <path d="M26 32 L12 32"/>
    <path d="M38 32 L52 32"/>
    <path d="M27 27 L18 18"/>
    <path d="M37 27 L46 18"/>
    <path d="M27 37 L18 46"/>
    <path d="M37 37 L46 46"/>
  </g>
  <g fill="#5cffb1">
    <circle cx="12" cy="12" r="2"/>
    <circle cx="52" cy="12" r="2"/>
    <circle cx="12" cy="52" r="2"/>
    <circle cx="52" cy="52" r="2"/>
    <circle cx="32" cy="12" r="2"/>
    <circle cx="32" cy="52" r="2"/>
    <circle cx="12" cy="32" r="2"/>
    <circle cx="52" cy="32" r="2"/>
  </g>
</svg>
